<?xml version="1.0" standalone="no"?>
<!DOCTYPE svg PUBLIC "-//W3C//DTD SVG 20010904//EN"
 "http://www.w3.org/TR/2001/REC-SVG-20010904/DTD/svg10.dtd">
<svg version="1.0" xmlns="http://www.w3.org/2000/svg"
 width="698.000000pt" height="244.000000pt" viewBox="0 0 698.000000 244.000000"
 preserveAspectRatio="xMidYMid meet">

<g transform="translate(0.000000,244.000000) scale(0.100000,-0.100000)"
fill="#000000" stroke="none">
<path d="M0 1220 l0 -1220 1015 0 1015 0 0 25 c0 23 4 25 40 25 36 0 40 -3 40
-25 l0 -25 2435 0 2435 0 0 1220 0 1220 -3490 0 -3490 0 0 -1220z m3451 844
c84 -25 148 -62 198 -114 48 -49 103 -137 434 -685 110 -181 237 -391 283
-467 90 -146 108 -181 83 -162 -8 6 -27 14 -42 18 -15 4 -25 10 -22 15 5 10
-25 25 -33 16 -3 -3 1 -5 8 -5 7 0 11 -2 8 -5 -9 -10 -38 7 -31 18 4 6 0 8
-10 4 -10 -3 -17 -3 -17 2 0 21 -319 120 -520 161 -193 39 -541 59 -720 41
-57 -5 -105 -9 -106 -8 -1 1 28 50 64 109 l67 108 298 0 c163 0 297 3 297 8 0
4 -7 16 -15 26 -20 27 -19 39 4 31 11 -3 22 -1 25 4 4 5 32 13 64 16 31 4 71
13 88 21 45 20 137 28 173 16 31 -11 37 -7 23 16 -7 10 -33 10 -128 2 -177
-15 -294 -32 -288 -42 3 -4 9 -6 13 -4 4 3 13 1 20 -3 9 -6 8 -10 -6 -13 -14
-4 -26 4 -40 26 -58 89 -263 417 -285 456 -14 25 -31 46 -39 48 -8 1 -23 -15
-35 -35 -52 -94 -217 -360 -232 -373 -9 -9 -18 -22 -20 -30 -2 -8 -22 -33 -45
-56 -23 -22 -78 -101 -122 -175 -43 -74 -89 -143 -100 -155 -17 -17 -39 -23
-106 -28 -117 -11 -318 -42 -352 -55 -52 -20 -61 -15 -39 22 10 17 119 196
242 397 123 201 263 430 311 510 113 186 168 249 262 295 40 19 97 39 127 44
70 13 192 5 261 -15z m-1558 -9 c135 -28 254 -113 322 -229 88 -150 98 -411
22 -555 -20 -36 -41 -65 -47 -63 -6 1 -9 -2 -5 -7 10 -17 -31 -85 -80 -130
-26 -23 -71 -54 -101 -68 -105 -48 -171 -52 -741 -53 l-528 -1 -3 172 c-2 131
1 174 10 181 7 4 230 8 496 8 385 0 489 3 515 14 76 31 119 136 98 238 -13 59
-38 106 -62 113 -9 3 -27 14 -39 25 -22 19 -39 20 -549 19 -289 -1 -550 -4
-580 -7 l-53 -7 -4 -267 c-3 -174 0 -268 6 -268 6 0 10 -76 10 -207 0 -138 -4
-203 -10 -193 -7 10 -10 -31 -10 -126 l0 -141 -102 -7 c-57 -4 -118 -9 -138
-11 -19 -2 -68 -7 -107 -10 l-73 -6 0 800 0 801 843 0 c692 0 854 -3 910 -15z
m4807 9 c0 -4 -12 -21 -27 -39 -48 -56 -58 -69 -92 -125 -18 -30 -36 -57 -40
-60 -3 -3 -17 -27 -31 -55 l-25 -50 -310 -8 c-170 -4 -456 -5 -635 -2 -482 8
-606 -6 -642 -73 -17 -32 -14 -112 6 -150 36 -69 11 -66 721 -73 569 -4 647
-7 700 -22 179 -53 284 -146 334 -298 18 -55 21 -85 19 -172 -2 -58 -7 -103
-12 -100 -5 4 -6 -6 -2 -21 3 -14 2 -26 -3 -26 -5 0 -7 -10 -3 -22 4 -15 2
-19 -7 -13 -10 6 -11 2 -6 -15 5 -17 4 -21 -6 -15 -9 6 -11 3 -6 -8 3 -10 2
-17 -4 -17 -5 0 -16 -15 -24 -32 -12 -30 -105 -134 -105 -119 0 3 -5 -1 -10
-11 -14 -23 -132 -66 -220 -78 -41 -6 -88 -13 -105 -16 -114 -17 -156 -16
-217 4 -119 38 -462 61 -932 62 -289 0 -289 0 -320 24 -17 13 -45 48 -61 77
-16 30 -34 59 -40 64 -18 15 -85 101 -85 109 0 3 370 6 823 6 786 0 824 1 864
19 54 25 73 62 73 142 0 74 -28 126 -72 136 -15 3 -26 8 -24 12 2 3 -267 6
-597 6 -425 1 -623 4 -675 13 -85 14 -225 79 -230 106 -3 16 1 17 30 10 50
-12 158 -7 158 7 0 4 28 12 63 17 53 8 36 10 -118 10 -164 1 -178 0 -160 -14
19 -15 19 -15 -10 -8 -51 12 -92 51 -127 121 -30 61 -33 77 -37 177 -4 123 8
195 46 271 65 130 179 215 328 245 47 9 1855 13 1855 4z m-2993 -1322 c247
-45 473 -120 831 -273 l184 -79 391 0 c398 0 565 -10 770 -45 127 -22 305 -67
412 -105 92 -33 288 -120 282 -126 -2 -2 -39 11 -83 30 -153 64 -344 117 -539
150 -143 25 -343 46 -427 46 -52 0 -78 4 -78 12 0 8 -59 9 -232 3 -403 -13
-500 -15 -512 -8 -6 4 -20 6 -31 5 -12 -2 -79 25 -150 59 -134 64 -198 89
-419 165 -155 54 -251 77 -451 109 -202 32 -355 39 -570 25 -165 -10 -502 -43
-550 -54 -11 -3 -60 -10 -110 -16 -162 -19 -890 -152 -974 -177 l-56 -17 225
-12 c216 -12 466 -30 1005 -73 389 -31 620 -43 1020 -50 l370 -6 -200 -8
c-110 -3 -254 -11 -320 -16 -67 -5 -181 -5 -260 0 -77 4 -176 6 -220 4 -75 -3
-311 13 -525 35 -52 5 -135 12 -185 15 l-90 6 50 -25 c28 -14 110 -53 183 -87
73 -34 131 -64 129 -65 -2 -2 -39 10 -83 27 -98 39 -299 102 -376 119 -32 7
-58 17 -58 22 0 5 -5 6 -10 3 -6 -4 -34 -2 -63 4 -189 39 -324 51 -565 51
-135 0 -282 -5 -326 -10 -473 -60 -536 -66 -486 -50 16 5 2 6 -35 3 -71 -7
-83 -13 -29 -14 21 -1 -15 -9 -81 -19 -66 -10 -121 -19 -121 -19 -1 -1 -5 -13
-8 -27 -4 -14 -18 -42 -31 -62 -13 -20 -31 -56 -41 -80 -28 -72 -26 -41 6 72
l30 107 -20 39 -20 40 102 0 c183 0 380 27 803 110 666 130 839 163 1010 190
238 39 444 66 605 80 69 5 141 12 160 14 19 2 175 3 345 1 263 -2 327 -6 422
-23z m-3130 -124 c-3 -7 -5 -2 -5 12 0 14 2 19 5 13 2 -7 2 -19 0 -25z m1593
-78 c0 -22 173 -89 335 -128 70 -17 4 -13 -123 8 -67 12 -170 36 -229 54 -99
31 -105 34 -83 46 48 26 100 36 100 20z m2088 -115 c32 -13 42 -23 42 -40 0
-16 17 -36 57 -66 l56 -44 -26 -9 c-15 -6 -27 -13 -27 -18 0 -18 -24 -5 -61
33 -36 38 -39 43 -24 59 8 9 15 22 15 29 0 19 -59 38 -142 46 -61 5 -78 10
-78 22 0 13 12 15 73 11 39 -3 91 -13 115 -23z m-2667 -159 c70 -15 176 -63
199 -90 10 -14 4 -13 -34 4 -88 37 -167 52 -276 52 -94 0 -114 -4 -185 -32
-44 -17 -98 -43 -120 -57 l-40 -26 35 37 c44 46 135 92 220 110 84 19 120 19
201 2z m4151 -24 c75 -21 147 -64 198 -118 l35 -37 -42 33 c-49 38 -193 88
-278 96 -128 13 -274 -29 -373 -104 -61 -46 -62 -34 -3 21 53 49 130 93 201
113 68 19 186 17 262 -4z m588 -107 c163 -55 290 -108 268 -113 -15 -3 -89 4
-255 23 -39 5 -92 38 -158 99 l-50 47 35 -7 c19 -4 91 -26 160 -49z"/>
<path d="M2545 1251 c-17 -29 126 -49 158 -23 10 8 28 11 49 7 58 -10 130 -13
121 -4 -9 9 -198 29 -275 29 -26 0 -49 -4 -53 -9z"/>
<path d="M1854 1263 c7 -8 52 -14 104 -14 23 0 42 -4 42 -10 0 -6 5 -7 12 -3
7 4 30 9 53 10 71 4 148 14 154 19 3 3 -80 5 -183 5 -103 -1 -185 -4 -182 -7z"/>
<path d="M1455 1249 c-66 -5 -165 -13 -220 -18 l-100 -9 130 4 c72 2 139 4
150 5 11 0 31 0 45 -1 14 -1 36 1 49 5 14 5 22 4 19 -1 -4 -5 16 -9 42 -9 27
0 43 3 37 7 -7 5 -8 8 -1 8 5 0 15 -5 20 -10 8 -8 26 -7 59 0 27 6 54 9 61 6
8 -3 30 1 51 9 36 13 30 14 -92 13 -71 -1 -184 -5 -250 -9z"/>
<path d="M1063 1213 c15 -2 37 -2 50 0 12 2 0 4 -28 4 -27 0 -38 -2 -22 -4z"/>
<path d="M5038 1263 c12 -2 30 -2 40 0 9 3 -1 5 -23 4 -22 0 -30 -2 -17 -4z"/>
<path d="M5191 1256 c9 -9 92 -15 284 -21 109 -4 203 -9 208 -12 19 -11 357
-24 357 -14 0 8 -218 25 -520 41 -185 10 -336 13 -329 6z"/>
<path d="M6068 1203 c12 -2 30 -2 40 0 9 3 -1 5 -23 4 -22 0 -30 -2 -17 -4z"/>
<path d="M6190 1190 c36 -12 72 -12 65 0 -3 6 -25 10 -48 9 -36 -1 -38 -2 -17
-9z"/>
<path d="M6278 1183 c7 -3 16 -2 19 1 4 3 -2 6 -13 5 -11 0 -14 -3 -6 -6z"/>
<path d="M5758 333 c7 -3 16 -2 19 1 4 3 -2 6 -13 5 -11 0 -14 -3 -6 -6z"/>
</g>
</svg>
